<?xml version="1.0" encoding="UTF-8" standalone="no"?>
<!-- Created with Inkscape (http://www.inkscape.org/) -->

<svg
   xmlns:dc="http://purl.org/dc/elements/1.1/"
   xmlns:cc="http://creativecommons.org/ns#"
   xmlns:rdf="http://www.w3.org/1999/02/22-rdf-syntax-ns#"
   xmlns:svg="http://www.w3.org/2000/svg"
   xmlns="http://www.w3.org/2000/svg"
   xmlns:sodipodi="http://sodipodi.sourceforge.net/DTD/sodipodi-0.dtd"
   xmlns:inkscape="http://www.inkscape.org/namespaces/inkscape"
   width="277.05191"
   height="277.05191"
   viewBox="0 0 259.73617 259.73617"
   id="svg2"
   version="1.1"
   inkscape:version="0.92.5 (2060ec1f9f, 2020-04-08)"
   sodipodi:docname="favicon.svg"
   inkscape:export-filename="/home/yann/Cloud/Projets/MetWork/Stage/Com/Logo/landing/intro-bg.jpg.png"
   inkscape:export-xdpi="339"
   inkscape:export-ydpi="339">
  <defs
     id="defs4" />
  <sodipodi:namedview
     id="base"
     pagecolor="#ffffff"
     bordercolor="#666666"
     borderopacity="1.0"
     inkscape:pageopacity="0"
     inkscape:pageshadow="2"
     inkscape:zoom="0.86678118"
     inkscape:cx="189.13936"
     inkscape:cy="-156.32496"
     inkscape:document-units="px"
     inkscape:current-layer="layer3"
     showgrid="false"
     showguides="false"
     inkscape:window-width="1920"
     inkscape:window-height="1136"
     inkscape:window-x="0"
     inkscape:window-y="0"
     inkscape:window-maximized="1"
     inkscape:snap-grids="true"
     fit-margin-top="0"
     fit-margin-left="0"
     fit-margin-right="0"
     fit-margin-bottom="0"
     units="px">
    <inkscape:grid
       type="xygrid"
       id="grid3336"
       originx="-666.50461"
       originy="-700.85031" />
  </sodipodi:namedview>
  <metadata
     id="metadata7">
    <rdf:RDF>
      <cc:Work
         rdf:about="">
        <dc:format>image/svg+xml</dc:format>
        <dc:type
           rdf:resource="http://purl.org/dc/dcmitype/StillImage" />
        <dc:title></dc:title>
      </cc:Work>
    </rdf:RDF>
  </metadata>
  <g
     inkscape:groupmode="layer"
     id="layer3"
     inkscape:label="Logo 1"
     transform="translate(-407.76637,8.6917496)">
    <circle
       style="opacity:0.98500001;fill:#073877;fill-opacity:1;stroke:none;stroke-width:9.03888321;stroke-miterlimit:4;stroke-dasharray:none;stroke-opacity:1"
       id="path823"
       cx="537.63446"
       cy="121.17634"
       r="129.86809" />
  </g>
  <g
     inkscape:label="Logo"
     inkscape:groupmode="layer"
     id="layer1"
     transform="translate(-666.50453,-91.775689)"
     style="display:inline">
    <g
       id="g4531"
       transform="matrix(0.43759684,0,0,0.43759684,437.42246,123.69778)"
       style="opacity:0.98500001;fill:#ffffff;fill-opacity:1"
       inkscape:export-xdpi="339"
       inkscape:export-ydpi="339">
      <path
         inkscape:connector-curvature="0"
         id="path3340"
         d="m 863.51518,107.30126 a 17.50175,17.50175 0 0 0 -14.06836,7.7793 l -66.10157,99.08594 a 17.50175,17.50175 0 1 0 29.11719,19.42187 l 50.02149,-74.98632 93.83398,172.37695 a 17.50175,17.50175 0 0 0 10.30664,8.36719 v -51.03321 c -0.89507,0.82622 -1.99651,1.6523 -3.30469,2.47852 -1.27375,0.79179 -2.61589,1.5505 -4.02734,2.27344 -1.41145,0.68851 -2.80657,1.32492 -4.18359,1.91015 -1.37703,0.55081 -2.58247,0.98118 -3.61524,1.29102 v -10.17383 c 1.17047,-0.48196 2.51262,-1.20406 4.02734,-2.16797 1.54917,-0.96392 3.04827,-1.97968 4.49415,-3.04687 1.44588,-1.10162 2.75335,-2.15206 3.92382,-3.15039 1.00955,-0.86109 1.68083,-1.52068 2.12696,-2.04883 L 879.37455,116.42431 a 17.50175,17.50175 0 0 0 -15.85937,-9.12305 z m 212.78512,0.39063 c -0.6835,0 -1.3266,0.0571 -1.9375,0.16211 a 17.50175,17.50175 0 0 0 -3.75,1.65039 c -0.083,0.0675 -0.1696,0.12992 -0.25,0.20117 -1.5147,1.30817 -2.7038,3.11536 -3.5644,5.42188 -0.8607,2.27208 -1.4461,4.95832 -1.7559,8.05664 -0.3098,3.0983 -0.4629,6.40265 -0.4629,9.91406 0,3.51142 0.1367,6.81575 0.4121,9.91406 0.3099,3.09831 0.8953,5.8009 1.7559,8.10742 0.8606,2.2721 2.0478,4.07928 3.5625,5.42188 1.5491,1.3426 3.546,2.01367 5.9902,2.01367 2.2359,0 4.0791,-0.56796 5.5371,-1.69141 l 5.0411,-9.25976 c 0.3196,-1.42145 0.566,-2.94728 0.7304,-4.5918 0.3099,-3.09831 0.4649,-6.40264 0.4649,-9.91406 0,-3.51141 -0.155,-6.81576 -0.4649,-9.91406 -0.2754,-3.09832 -0.8425,-5.78456 -1.7031,-8.05664 -0.8262,-2.30652 -2.0134,-4.11371 -3.5625,-5.42188 -1.5492,-1.3426 -3.5643,-2.01367 -6.043,-2.01367 z m -23.0644,28.50781 -75.81838,139.28516 v 63.65625 a 17.50175,17.50175 0 0 0 9.64062,-8.16211 l 89.41996,-164.26758 c -0.06,3.5e-4 -0.1173,0.004 -0.1778,0.004 -4.2343,0 -7.814,-0.87906 -10.7402,-2.63477 -2.9262,-1.75571 -5.3188,-4.14827 -7.1777,-7.17773 -1.8246,-3.06388 -3.1504,-6.62723 -3.9766,-10.68946 -0.6396,-3.17153 -1.0255,-6.51201 -1.1699,-10.01367 z"
         style="color:#000000;font-style:normal;font-variant:normal;font-weight:normal;font-stretch:normal;font-size:medium;line-height:normal;font-family:sans-serif;text-indent:0;text-align:start;text-decoration:none;text-decoration-line:none;text-decoration-style:solid;text-decoration-color:#000000;letter-spacing:normal;word-spacing:normal;text-transform:none;writing-mode:lr-tb;direction:ltr;baseline-shift:baseline;text-anchor:start;white-space:normal;clip-rule:nonzero;display:inline;overflow:visible;visibility:visible;opacity:0.98999999;isolation:auto;mix-blend-mode:normal;color-interpolation:sRGB;color-interpolation-filters:linearRGB;solid-color:#000000;solid-opacity:1;fill:#ffffff;fill-opacity:1;fill-rule:evenodd;stroke:none;stroke-width:35;stroke-linecap:round;stroke-linejoin:round;stroke-miterlimit:4;stroke-dasharray:none;stroke-dashoffset:0;stroke-opacity:1;color-rendering:auto;image-rendering:auto;shape-rendering:auto;text-rendering:auto;enable-background:accumulate" />
      <path
         inkscape:connector-curvature="0"
         id="path3338"
         d="m 673.05619,112.0122 -14.21484,14.21485 -1.06836,1.79296 v 13.22461 l 15.28515,15.28321 h 13.94922 l 15.28321,-15.28321 v -13.33984 l -0.89844,-1.50781 -14.38477,-14.38477 z m 40.02149,34.00195 -21.51563,21.51368 h -6.4082 l 97.71484,164.03906 a 17.50175,17.50175 0 0 0 29.58399,0.77148 l 66.09961,-98.86718 a 17.50175,17.50175 0 1 0 -29.09571,-19.45313 l -50.69922,75.83008 z m -66.04883,0.043 -90.62305,152.13672 17.7832,-4.53125 2.7168,10.66016 -14.38672,3.66601 -10.04101,16.9043 3.66601,14.38672 -0.0664,0.0176 a 17.50175,17.50175 0 0 0 21.18554,-7.73047 l 4.73633,-7.95313 -16.91992,4.30274 -2.71094,-10.66016 14.38867,-3.66015 10.04688,-16.9004 -3.65821,-14.38867 10.66016,-2.71093 4.3125,16.96093 76.85938,-129.02929 h -6.47657 l -21.47265,-21.47071 z"
         style="color:#000000;font-style:normal;font-variant:normal;font-weight:normal;font-stretch:normal;font-size:medium;line-height:normal;font-family:sans-serif;text-indent:0;text-align:start;text-decoration:none;text-decoration-line:none;text-decoration-style:solid;text-decoration-color:#000000;letter-spacing:normal;word-spacing:normal;text-transform:none;writing-mode:lr-tb;direction:ltr;baseline-shift:baseline;text-anchor:start;white-space:normal;clip-rule:nonzero;display:inline;overflow:visible;visibility:visible;opacity:1;isolation:auto;mix-blend-mode:normal;color-interpolation:sRGB;color-interpolation-filters:linearRGB;solid-color:#000000;solid-opacity:1;fill:#ffffff;fill-opacity:1;fill-rule:evenodd;stroke:none;stroke-width:35;stroke-linecap:round;stroke-linejoin:round;stroke-miterlimit:4;stroke-dasharray:none;stroke-dashoffset:0;stroke-opacity:1;color-rendering:auto;image-rendering:auto;shape-rendering:auto;text-rendering:auto;enable-background:accumulate" />
    </g>
    <g
       style="font-style:normal;font-weight:normal;font-size:105.75559235px;line-height:125%;font-family:sans-serif;letter-spacing:0px;word-spacing:0px;fill:#ffffff;fill-opacity:1;stroke:none;stroke-width:1px;stroke-linecap:butt;stroke-linejoin:miter;stroke-opacity:1"
       id="text4235"
       transform="translate(-228)" />
    <g
       style="font-style:normal;font-weight:normal;font-size:105.75559235px;line-height:125%;font-family:sans-serif;letter-spacing:0px;word-spacing:0px;display:inline;fill:#ffffff;fill-opacity:1;stroke:none;stroke-width:1px;stroke-linecap:butt;stroke-linejoin:miter;stroke-opacity:1"
       id="text4235-7"
       transform="translate(-228)" />
  </g>
  <g
     inkscape:groupmode="layer"
     id="layer6"
     inkscape:label="MetWork"
     style="display:inline"
     transform="translate(-666.50453,216.49203)" />
  <g
     inkscape:groupmode="layer"
     id="layer2"
     inkscape:label="Cadre"
     style="display:none"
     transform="translate(-666.50453,216.49203)">
    <path
       style="display:inline;fill:none;fill-rule:evenodd;stroke:#858c95;stroke-width:15.7958746;stroke-linecap:butt;stroke-linejoin:miter;stroke-miterlimit:4;stroke-dasharray:none;stroke-opacity:0.99215686"
       d="m 405.14352,8.00143 -244.0528,244.05281 v 244.05265 l 244.0528,244.05279 H 649.19617 L 893.24898,496.10689 V 252.05424 L 649.19617,8.00143 Z"
       id="path4179-3"
       inkscape:connector-curvature="0" />
  </g>
</svg>
